<svg width="49" height="73" viewBox="0 0 49 73" fill="none" xmlns="http://www.w3.org/2000/svg">
<path fill-rule="evenodd" clip-rule="evenodd" d="M44.287 38.9502C47.2505 34.8991 49 29.9038 49 24.5C49 10.969 38.031 0 24.5 0C10.969 0 0 10.969 0 24.5C0 29.9038 1.7495 34.8991 4.713 38.9502C4.75111 39.1591 4.82429 39.3678 4.93653 39.5695L22.7524 71.5846C23.5147 72.9546 25.4853 72.9546 26.2476 71.5846L44.0635 39.5695C44.1757 39.3678 44.2489 39.1591 44.287 38.9502ZM36.1375 24.4999C36.1375 30.9271 30.9272 36.1374 24.5 36.1374C18.0728 36.1374 12.8625 30.9271 12.8625 24.4999C12.8625 18.0727 18.0728 12.8624 24.5 12.8624C30.9272 12.8624 36.1375 18.0727 36.1375 24.4999Z" fill="#8975C3"/>
</svg>
