<svg width="51" height="14" viewBox="0 0 51 14" fill="none" xmlns="http://www.w3.org/2000/svg">
<path d="M12.474 13H9.196V3.452H6.182C5.99133 5.79867 5.73467 7.69067 5.412 9.128C5.104 10.5507 4.67133 11.592 4.114 12.252C3.55667 12.8973 2.80867 13.22 1.87 13.22C1.10733 13.22 0.484 13.1027 0 12.868V10.25C0.337333 10.3967 0.689333 10.47 1.056 10.47C1.32 10.47 1.562 10.338 1.782 10.074C2.002 9.81 2.20733 9.33333 2.398 8.644C2.60333 7.95467 2.78667 6.994 2.948 5.762C3.10933 4.51533 3.256 2.924 3.388 0.988H12.474V13ZM26.8077 6.972C26.8077 8.96667 26.2797 10.5067 25.2237 11.592C24.1824 12.6773 22.7597 13.22 20.9557 13.22C19.841 13.22 18.8437 12.978 17.9637 12.494C17.0984 12.01 16.4164 11.306 15.9177 10.382C15.419 9.44333 15.1697 8.30667 15.1697 6.972C15.1697 4.97733 15.6904 3.44467 16.7317 2.374C17.773 1.30333 19.203 0.767999 21.0217 0.767999C22.151 0.767999 23.1484 1.01 24.0137 1.494C24.879 1.978 25.561 2.682 26.0597 3.606C26.5584 4.51533 26.8077 5.63733 26.8077 6.972ZM18.5137 6.972C18.5137 8.16 18.7044 9.062 19.0857 9.678C19.4817 10.2793 20.1197 10.58 20.9997 10.58C21.865 10.58 22.4884 10.2793 22.8697 9.678C23.2657 9.062 23.4637 8.16 23.4637 6.972C23.4637 5.784 23.2657 4.89667 22.8697 4.31C22.4884 3.70867 21.8577 3.408 20.9777 3.408C20.1124 3.408 19.4817 3.70867 19.0857 4.31C18.7044 4.89667 18.5137 5.784 18.5137 6.972ZM37.8108 0.988V3.452H32.7948V13H29.5168V0.988H37.8108ZM50.7198 6.972C50.7198 8.96667 50.1918 10.5067 49.1358 11.592C48.0945 12.6773 46.6718 13.22 44.8678 13.22C43.7531 13.22 42.7558 12.978 41.8758 12.494C41.0105 12.01 40.3285 11.306 39.8298 10.382C39.3311 9.44333 39.0818 8.30667 39.0818 6.972C39.0818 4.97733 39.6025 3.44467 40.6438 2.374C41.6851 1.30333 43.1151 0.767999 44.9338 0.767999C46.0631 0.767999 47.0605 1.01 47.9258 1.494C48.7911 1.978 49.4731 2.682 49.9718 3.606C50.4705 4.51533 50.7198 5.63733 50.7198 6.972ZM42.4258 6.972C42.4258 8.16 42.6165 9.062 42.9978 9.678C43.3938 10.2793 44.0318 10.58 44.9118 10.58C45.7771 10.58 46.4005 10.2793 46.7818 9.678C47.1778 9.062 47.3758 8.16 47.3758 6.972C47.3758 5.784 47.1778 4.89667 46.7818 4.31C46.4005 3.70867 45.7698 3.408 44.8898 3.408C44.0245 3.408 43.3938 3.70867 42.9978 4.31C42.6165 4.89667 42.4258 5.784 42.4258 6.972Z" fill="#EFE9FF"/>
</svg>
