<svg width="80" height="80" viewBox="0 0 80 80" fill="none" xmlns="http://www.w3.org/2000/svg">
<path d="M16.255 15.3785L25.498 19.4422C23.6653 22.1514 22.7092 25.259 22.7092 28.5259C22.7092 37.4502 29.9602 44.7809 38.9641 44.7809C47.9681 44.7809 55.2191 37.5299 55.2191 28.5259C55.2191 25.3386 54.2629 22.1514 52.51 19.5219L60.6374 15.6972V31.1554L58.1673 36.4143C58.008 36.8128 58.008 37.2112 58.247 37.5299C58.486 37.8486 58.8845 38.0877 59.2829 38.0877H63.9841C64.3825 38.0877 64.7809 37.9283 64.9402 37.5299C65.1793 37.2112 65.1793 36.8128 65.0199 36.4143L62.8685 31.1554V14.6614C62.8685 14.0239 62.7888 13.5458 61.6733 13.0677C61.4343 12.988 39.5219 3.26693 39.5219 3.26693C39.2032 3.10757 38.8845 3.10757 38.5657 3.26693L16.255 13.1474C15.8566 13.3068 15.5378 13.7849 15.5378 14.2629C15.5378 14.741 15.7769 15.1394 16.255 15.3785ZM52.749 28.5259C52.749 36.1753 46.5339 42.3904 38.8845 42.3904C31.2351 42.3904 25.0199 36.1753 25.0199 28.5259C25.0199 25.5777 25.9761 22.7888 27.6494 20.3984L38.486 25.259C38.6454 25.3386 38.8048 25.3386 38.9641 25.3386C39.1235 25.3386 39.2829 25.3386 39.4422 25.259L50.1195 20.4781C51.8725 22.8685 52.749 25.6574 52.749 28.5259ZM61.1155 35.6972L61.6733 34.502L62.1514 35.6972H61.1155ZM39.0438 5.65737L58.4064 14.2629L39.0438 22.8685L19.6813 14.2629L39.0438 5.65737Z" fill="#E5DFF3"/>
<path d="M39.3624 47.6494C23.8246 47.6494 11.1553 60.3187 11.1553 75.8566C11.1553 76.494 11.713 77.0518 12.3505 77.0518H66.3744C67.0119 77.0518 67.5696 76.494 67.5696 75.8566C67.5696 60.3187 54.9003 47.6494 39.3624 47.6494ZM13.6254 74.6614C14.2628 60.9562 25.5776 50.0398 39.4421 50.0398C53.3067 50.0398 64.5417 61.0359 65.1792 74.6614H13.6254Z" fill="#E5DFF3"/>
</svg>
