<svg width="24" height="24" viewBox="0 0 24 24" fill="none" xmlns="http://www.w3.org/2000/svg">
<g clip-path="url(#clip0)">
<path d="M23.4999 6.50701C23.364 6.02225 23.0993 5.58336 22.7339 5.23702C22.3582 4.88002 21.8977 4.62465 21.3959 4.49501C19.5179 4.00001 11.9939 4.00002 11.9939 4.00002C8.85721 3.96433 5.72131 4.12129 2.60388 4.47001C2.10208 4.60923 1.64245 4.8703 1.26588 5.23002C0.895885 5.58601 0.627885 6.02502 0.487885 6.50602C0.151578 8.31776 -0.0118232 10.1574 -0.000115239 12C-0.0121152 13.841 0.150885 15.68 0.487885 17.494C0.624885 17.973 0.891885 18.41 1.26288 18.763C1.63388 19.116 2.09588 19.371 2.60388 19.506C4.50689 20 11.9939 20 11.9939 20C15.1345 20.0358 18.2744 19.8788 21.3959 19.53C21.8977 19.4004 22.3582 19.145 22.7339 18.788C23.1039 18.435 23.3669 17.996 23.4989 17.518C23.844 15.707 24.0118 13.8666 23.9999 12.023C24.0258 10.1716 23.8583 8.32258 23.4999 6.50602V6.50701ZM9.60188 15.424V8.57701L15.8619 12.001L9.60188 15.424Z" fill="currentColor"/>
</g>
<defs>
<clipPath id="clip0">
<rect width="24" height="24" fill="white"/>
</clipPath>
</defs>
</svg>
