<svg width="80" height="80" viewBox="0 0 80 80" fill="none" xmlns="http://www.w3.org/2000/svg">
<path d="M63.0278 8.04781H50.3585V2.62948C50.3585 1.99203 49.8008 1.43426 49.1633 1.43426H30.2788C29.6414 1.43426 29.0836 1.99203 29.0836 2.62948V8.04781H15.6972C12.9083 8.04781 10.6772 10.2789 10.6772 13.0677V73.1474C10.6772 75.9363 12.9083 78.1673 15.6972 78.1673H63.1075C65.8964 78.1673 68.1274 75.9363 68.1274 73.1474V13.0677C68.0478 10.2789 65.8167 8.04781 63.0278 8.04781ZM30.2788 23.506H49.1633C49.8008 23.506 50.3585 22.9482 50.3585 22.3108V17.1315H58.7251V68.6853H20V17.2112H29.0836V22.3108C29.0836 23.0279 29.6414 23.506 30.2788 23.506ZM47.9681 3.8247V15.9363V21.1155H31.4741V15.9363V9.16335V3.8247H47.9681ZM65.6573 73.0677C65.6573 74.502 64.4621 75.6972 63.0278 75.6972H15.6972C14.2629 75.6972 13.0677 74.502 13.0677 73.0677V13.0677C13.0677 11.6335 14.2629 10.4382 15.6972 10.4382H29.0836V14.8207H18.8047C18.1673 14.8207 17.6095 15.3785 17.6095 16.0159V69.9602C17.6095 70.5976 18.1673 71.1554 18.8047 71.1554H59.9203C60.5577 71.1554 61.1155 70.5976 61.1155 69.9602V16.0159C61.1155 15.3785 60.5577 14.8207 59.9203 14.8207H50.3585V10.4382H63.0278C64.4621 10.4382 65.6573 11.6335 65.6573 13.0677V73.0677Z" fill="#E5DFF3"/>
<path d="M22.9482 36.9721C22.9482 37.6096 23.506 38.1673 24.1435 38.1673H54.8207C55.4582 38.1673 56.016 37.6096 56.016 36.9721C56.016 36.3347 55.4582 35.7769 54.8207 35.7769H24.1435C23.506 35.7769 22.9482 36.3347 22.9482 36.9721Z" fill="#E5DFF3"/>
<path d="M54.8207 44.1434H24.1435C23.506 44.1434 22.9482 44.7012 22.9482 45.3386C22.9482 45.9761 23.506 46.5339 24.1435 46.5339H54.8207C55.4582 46.5339 56.016 45.9761 56.016 45.3386C56.016 44.7012 55.4582 44.1434 54.8207 44.1434Z" fill="#E5DFF3"/>
<path d="M54.8207 52.9084H24.1435C23.506 52.9084 22.9482 53.4661 22.9482 54.1036C22.9482 54.741 23.506 55.2988 24.1435 55.2988H54.8207C55.4582 55.2988 56.016 54.741 56.016 54.1036C56.016 53.4661 55.4582 52.9084 54.8207 52.9084Z" fill="#E5DFF3"/>
</svg>
