<svg width="25" height="24" viewBox="0 0 25 24" fill="none" xmlns="http://www.w3.org/2000/svg">
<g clip-path="url(#clip0)">
<path d="M16.0196 12V11.999C16.0196 11.0736 15.6987 10.1768 15.1116 9.46152C14.5246 8.74619 13.7076 8.25654 12.8 8.076C11.8924 7.89545 10.9503 8.03519 10.1342 8.47138C9.31802 8.90758 8.67837 9.61326 8.32419 10.4682C7.97001 11.3231 7.92321 12.2744 8.19177 13.16C8.46032 14.0455 9.02762 14.8106 9.797 15.3248C10.5664 15.839 11.4902 16.0705 12.4112 15.9799C13.3321 15.8893 14.1932 15.4822 14.8476 14.828C15.219 14.469 15.5141 14.0389 15.7155 13.5633C15.9169 13.0877 16.0203 12.5764 16.0196 12.06L16.0186 11.997V12H16.0196ZM18.1796 12C18.1748 13.4184 17.6787 14.7914 16.7755 15.8852C15.8724 16.9791 14.6182 17.7261 13.2263 17.9993C11.8344 18.2726 10.3908 18.055 9.14126 17.3837C7.8917 16.7124 6.91336 15.6289 6.37273 14.3175C5.83211 13.0061 5.76261 11.5479 6.17606 10.191C6.58952 8.83412 7.46038 7.66244 8.64043 6.87535C9.82049 6.08827 11.2368 5.73441 12.6484 5.874C14.06 6.01359 15.3796 6.63801 16.3826 7.64099C16.9522 8.1937 17.4049 8.85528 17.7138 9.58641C18.0227 10.3175 18.1814 11.1033 18.1806 11.897L18.1796 12.006V12.001V12ZM19.8666 5.59399V5.59599C19.8667 5.92914 19.7513 6.25203 19.54 6.50963C19.3288 6.76723 19.0347 6.94361 18.708 7.0087C18.3812 7.07379 18.042 7.02358 17.7482 6.86662C17.4543 6.70965 17.224 6.45565 17.0964 6.14789C16.9688 5.84012 16.9519 5.49765 17.0485 5.17881C17.1451 4.85997 17.3493 4.5845 17.6263 4.39934C17.9033 4.21418 18.2359 4.13078 18.5674 4.16335C18.899 4.19593 19.209 4.34246 19.4446 4.57799C19.7006 4.82899 19.8596 5.17899 19.8596 5.56599V5.59499V5.59399H19.8666ZM12.0266 2.15399L10.8316 2.14599C10.1076 2.14065 9.55796 2.14065 9.18262 2.14599C8.80729 2.15132 8.30463 2.16699 7.67463 2.19299C7.08963 2.21299 6.53463 2.27099 5.99163 2.36299L6.06463 2.35299C5.63963 2.42299 5.26263 2.52299 4.90163 2.65599L4.94463 2.64199C4.43463 2.847 3.97085 3.15206 3.58064 3.53918C3.19043 3.9263 2.88169 4.38764 2.67263 4.89599L2.66262 4.92299C2.53427 5.2743 2.43919 5.63689 2.37862 6.00599L2.37363 6.04299C2.28468 6.56844 2.23156 7.09933 2.21462 7.63199L2.21362 7.65299C2.18762 8.28365 2.17196 8.78632 2.16663 9.16099C2.16129 9.53565 2.16129 10.0853 2.16663 10.81C2.17196 11.5347 2.17462 11.933 2.17462 12.005C2.17462 12.077 2.17196 12.4753 2.16663 13.2C2.16129 13.9247 2.16129 14.4743 2.16663 14.849C2.17196 15.2237 2.18762 15.7263 2.21362 16.357C2.23362 16.942 2.29163 17.497 2.38363 18.04L2.37363 17.967C2.44362 18.392 2.54363 18.769 2.67663 19.13L2.66262 19.087C2.86764 19.597 3.1727 20.0608 3.55982 20.451C3.94694 20.8412 4.40828 21.1499 4.91663 21.359L4.94362 21.369C5.26162 21.488 5.63863 21.588 6.02663 21.653L6.06363 21.658C6.53263 21.74 7.08763 21.798 7.65163 21.817L7.67263 21.818C8.30329 21.844 8.80596 21.8597 9.18062 21.865C9.55529 21.8703 10.105 21.8703 10.8296 21.865L12.0176 21.841L13.2126 21.849C13.9366 21.8543 14.4863 21.8543 14.8616 21.849C15.237 21.8437 15.7396 21.828 16.3696 21.802C16.9546 21.782 17.5096 21.724 18.0526 21.632L17.9796 21.642C18.4046 21.572 18.7816 21.472 19.1426 21.339L19.0996 21.353C19.6096 21.148 20.0734 20.8429 20.4636 20.4558C20.8538 20.0687 21.1626 19.6073 21.3716 19.099L21.3816 19.072C21.5006 18.754 21.6006 18.377 21.6656 17.989L21.6706 17.952C21.7526 17.483 21.8106 16.928 21.8296 16.364L21.8306 16.343C21.8566 15.7123 21.8723 15.2097 21.8776 14.835C21.883 14.4603 21.883 13.9107 21.8776 13.186C21.8723 12.4613 21.8696 12.063 21.8696 11.991C21.8696 11.919 21.8723 11.5207 21.8776 10.796C21.883 10.0713 21.883 9.52165 21.8776 9.14699C21.8723 8.77232 21.8566 8.26965 21.8306 7.63899C21.8106 7.05399 21.7526 6.49899 21.6606 5.95599L21.6706 6.02899C21.6072 5.63249 21.5057 5.24303 21.3676 4.86599L21.3816 4.90899C21.1766 4.39899 20.8715 3.93521 20.4844 3.545C20.0973 3.15479 19.636 2.84605 19.1276 2.63699L19.1006 2.62699C18.7493 2.49863 18.3867 2.40355 18.0176 2.34299L17.9806 2.33799C17.4555 2.24909 16.9249 2.19597 16.3926 2.17899L16.3716 2.17799C15.741 2.15199 15.2383 2.13632 14.8636 2.13099C14.489 2.12565 13.9393 2.12565 13.2146 2.13099L12.0266 2.15399ZM24.0196 12C24.0196 14.3853 23.993 16.0363 23.9396 16.953C23.9869 17.882 23.8384 18.8105 23.5039 19.6785C23.1694 20.5464 22.6562 21.3344 21.9977 21.9913C21.3391 22.6483 20.5499 23.1595 19.6812 23.4919C18.8124 23.8243 17.8835 23.9705 16.9546 23.921L16.9706 23.922C16.054 23.9753 14.403 24.002 12.0176 24.002C9.63229 24.002 7.98129 23.9753 7.06463 23.922C6.13564 23.9693 5.20709 23.8208 4.33915 23.4863C3.47121 23.1517 2.68324 22.6386 2.0263 21.98C1.36936 21.3215 0.858117 20.5323 0.525695 19.6635C0.193274 18.7948 0.0470929 17.8659 0.096625 16.937L0.095625 16.953C0.0422917 16.0363 0.015625 14.3853 0.015625 12C0.015625 9.61465 0.0422917 7.96365 0.095625 7.04699C0.0483564 6.118 0.196801 5.18946 0.531338 4.32151C0.865875 3.45357 1.37904 2.6656 2.03758 2.00866C2.69612 1.35172 3.48534 0.840478 4.3541 0.508056C5.22285 0.175635 6.15176 0.0294537 7.08063 0.0789858L7.06463 0.0779858C7.98129 0.0246525 9.63229 -0.00201416 12.0176 -0.00201416C14.403 -0.00201416 16.054 0.0246525 16.9706 0.0779858C17.8996 0.0307173 18.8282 0.179161 19.6961 0.513699C20.564 0.848236 21.352 1.3614 22.009 2.01994C22.6659 2.67848 23.1771 3.4677 23.5096 4.33646C23.842 5.20521 23.9882 6.13412 23.9386 7.06299L23.9396 7.04699C23.993 7.96299 24.0196 9.61399 24.0196 12Z" fill="currentColor"/>
</g>
<defs>
<clipPath id="clip0">
<rect width="24" height="24" fill="white" transform="translate(0.0195312)"/>
</clipPath>
</defs>
</svg>
