<svg width="22" height="24" viewBox="0 0 22 24" fill="none" xmlns="http://www.w3.org/2000/svg">
<g clip-path="url(#clip0)">
<path d="M18.7675 1.5H2.2521C1.65481 1.5 1.08198 1.73705 0.659625 2.15901C0.237274 2.58097 0 3.15326 0 3.75L0 20.25C0 20.8467 0.237274 21.419 0.659625 21.841C1.08198 22.2629 1.65481 22.5 2.2521 22.5H8.6917V15.3605H5.73582V12H8.6917V9.43875C8.6917 6.52547 10.4277 4.91625 13.0866 4.91625C14.36 4.91625 15.6915 5.14313 15.6915 5.14313V8.0025H14.2244C12.7788 8.0025 12.3279 8.89875 12.3279 9.81797V12H15.555L15.0389 15.3605H12.3279V22.5H18.7675C19.3648 22.5 19.9376 22.2629 20.36 21.841C20.7823 21.419 21.0196 20.8467 21.0196 20.25V3.75C21.0196 3.15326 20.7823 2.58097 20.36 2.15901C19.9376 1.73705 19.3648 1.5 18.7675 1.5V1.5Z" fill="currentColor"/>
</g>
<defs>
<clipPath id="clip0">
<rect width="21.0196" height="24" fill="white"/>
</clipPath>
</defs>
</svg>
