<svg width="136" height="123" viewBox="0 0 136 123" fill="none" xmlns="http://www.w3.org/2000/svg">
<path d="M67.9167 0C30.5625 0 0 24.45 0 54.3333C0 68.5958 6.79167 82.1792 19.0167 91.6875C19.0167 95.7625 16.3 106.629 0 122.25C0 122.25 23.7708 122.25 44.1458 105.271C51.6167 107.308 59.7667 108.667 67.9167 108.667C105.271 108.667 135.833 84.2167 135.833 54.3333C135.833 24.45 105.271 0 67.9167 0ZM74.7083 81.5H61.125V67.9167H74.7083V81.5ZM86.9333 47.5417C84.8958 50.2583 82.1792 51.6167 79.4625 52.975C77.425 54.3333 76.7458 55.0125 76.0667 56.3708C74.7083 57.7292 74.7083 59.0875 74.7083 61.125H61.125C61.125 57.7292 61.8042 55.6917 63.1625 53.6542C64.5208 52.2958 67.2375 50.2583 70.6333 48.2208C72.6708 47.5417 74.0292 46.1833 74.7083 44.825C75.3875 43.4667 76.0667 41.4292 76.0667 40.0708C76.0667 38.0333 75.3875 36.675 74.0292 35.3167C72.6708 33.9583 70.6333 33.2792 68.5958 33.2792C66.5583 33.2792 65.2 33.9583 63.8417 34.6375C62.4833 35.3167 61.8042 36.675 61.8042 38.7125H48.2208C48.9 33.9583 50.9375 29.8833 54.3333 27.1667C57.7292 24.45 62.4833 23.7708 68.5958 23.7708C74.7083 23.7708 80.1417 25.1292 83.5375 27.8458C86.9333 30.5625 88.9708 34.6375 88.9708 39.3917C89.65 42.1083 88.9708 44.825 86.9333 47.5417Z" fill="#7F5FDC"/>
</svg>
