<svg width="24" height="24" viewBox="0 0 24 24" fill="none" xmlns="http://www.w3.org/2000/svg">
<g clip-path="url(#clip0)">
<path d="M23.4888 5.07674C23.6568 4.45555 23.4888 4 22.6946 4H20.0637C19.3943 4 19.0883 4.39409 18.9204 4.82693C18.9204 4.82693 17.5827 8.45927 15.6872 10.8145C15.0754 11.4998 14.7958 11.7162 14.4623 11.7162C14.2956 11.7162 14.0532 11.4998 14.0532 10.8786V5.07674C14.0532 4.33131 13.8601 4 13.3022 4H9.16806C8.75057 4 8.49863 4.34466 8.49863 4.6733C8.49863 5.37866 9.44639 5.54164 9.54357 7.52947V11.8418C9.54357 12.7863 9.3912 12.9586 9.05529 12.9586C8.16392 12.9586 5.99487 9.31291 4.7076 5.13953C4.45686 4.32863 4.20373 4.00134 3.5319 4.00134H0.90217C0.149962 4.00134 0 4.39543 0 4.82826C0 5.60576 0.891373 9.45318 4.15214 14.5417C6.32599 18.0164 9.38641 19.9 12.1745 19.9C13.8457 19.9 14.052 19.4819 14.052 18.7605V16.1341C14.052 15.2978 14.2116 15.1295 14.7406 15.1295C15.1293 15.1295 15.7988 15.3486 17.3596 17.0224C19.1423 19.0076 19.4374 19.8987 20.4392 19.8987H23.0689C23.8199 19.8987 24.1954 19.4805 23.9795 18.6549C23.7431 17.8333 22.8914 16.6377 21.7612 15.223C21.147 14.4161 20.2292 13.5477 19.9497 13.1136C19.5598 12.5538 19.6726 12.3067 19.9497 11.8097C19.9509 11.8111 23.1553 6.78537 23.4888 5.07674V5.07674Z" fill="currentColor"/>
</g>
<defs>
<clipPath id="clip0">
<rect width="24" height="24" fill="white"/>
</clipPath>
</defs>
</svg>
