<svg width="32" height="48" viewBox="0 0 32 48" fill="none" xmlns="http://www.w3.org/2000/svg">
<path d="M18.4401 38.0001C18.2409 38.0011 18.044 37.9351 17.8641 37.8071C17.6841 37.679 17.5255 37.4921 17.4001 37.2601L10.9601 25.2601C10.7639 24.9022 10.6567 24.4533 10.6567 23.9901C10.6567 23.5268 10.7639 23.0779 10.9601 22.7201L17.6267 10.7201C17.853 10.3116 18.1783 10.0548 18.5308 10.006C18.8834 9.95726 19.2344 10.1206 19.5067 10.4601C19.779 10.7995 19.9502 11.2874 19.9827 11.8162C20.0153 12.3451 19.9064 12.8716 19.6801 13.2801L13.7201 24.0001L19.4801 34.7201C19.6431 35.0136 19.7467 35.3711 19.7785 35.7502C19.8103 36.1293 19.7691 36.5142 19.6597 36.8592C19.5503 37.2043 19.3773 37.4951 19.1611 37.6973C18.945 37.8995 18.6948 38.0045 18.4401 38.0001Z" fill="currentColor"/>
</svg>
