<svg width="44" height="44" viewBox="0 0 44 44" fill="none" xmlns="http://www.w3.org/2000/svg">
<path d="M22 0C9.85089 0 0 9.85089 0 22C0 34.1491 9.85089 44 22 44C34.1491 44 44 34.1491 44 22C44 9.85089 34.1491 0 22 0ZM30.1223 30.358L26.8813 30.3433L22 24.5241L17.1237 30.3384L13.8777 30.3531C13.6616 30.3531 13.4848 30.1812 13.4848 29.9603C13.4848 29.867 13.5192 29.7786 13.5781 29.7049L19.967 22.0933L13.5781 14.4866C13.5188 14.4146 13.4859 14.3245 13.4848 14.2312C13.4848 14.0152 13.6616 13.8384 13.8777 13.8384L17.1237 13.8531L22 19.6723L26.8763 13.858L30.1174 13.8433C30.3335 13.8433 30.5103 14.0152 30.5103 14.2362C30.5103 14.3295 30.4759 14.4179 30.417 14.4915L24.0379 22.0982L30.4219 29.7098C30.4808 29.7835 30.5152 29.8719 30.5152 29.9652C30.5152 30.1813 30.3384 30.358 30.1223 30.358Z" fill="currentColor"/>
</svg>
