<svg width="29" height="10" viewBox="0 0 29 10" fill="none" xmlns="http://www.w3.org/2000/svg">
<path d="M-6.10352e-05 1.56001C-0.00107765 1.7592 0.064867 1.95601 0.192924 2.13598C0.320982 2.31596 0.507898 2.47451 0.739941 2.60001L12.7399 9.04001C13.0978 9.23611 13.5467 9.34332 14.0099 9.34332C14.4732 9.34332 14.9221 9.23611 15.2799 9.04001L27.2799 2.37334C27.6884 2.14702 27.9452 1.82181 27.994 1.46924C28.0427 1.11667 27.8794 0.765628 27.5399 0.49334C27.2005 0.22105 26.7126 0.049819 26.1838 0.017312C25.6549 -0.0151939 25.1284 0.093688 24.7199 0.320006L13.9999 6.28001L3.27994 0.520007C2.98637 0.356962 2.62889 0.253393 2.24979 0.221554C1.87069 0.189714 1.48584 0.230937 1.14079 0.340344C0.795732 0.449753 0.504911 0.622766 0.302731 0.838913C0.10055 1.05506 -0.00452423 1.30529 -6.10352e-05 1.56001Z" fill="#EFE9FF"/>
</svg>
