<svg width="32" height="48" viewBox="0 0 32 48" fill="none" xmlns="http://www.w3.org/2000/svg">
<path d="M13.5599 38.0001C13.7591 38.0011 13.956 37.9351 14.1359 37.8071C14.3159 37.679 14.4745 37.4921 14.5999 37.2601L21.0399 25.2601C21.2361 24.9022 21.3433 24.4533 21.3433 23.9901C21.3433 23.5268 21.2361 23.0779 21.0399 22.7201L14.3733 10.7201C14.147 10.3116 13.8217 10.0548 13.4692 10.006C13.1166 9.95726 12.7656 10.1206 12.4933 10.4601C12.221 10.7995 12.0498 11.2874 12.0173 11.8162C11.9847 12.3451 12.0936 12.8716 12.3199 13.2801L18.2799 24.0001L12.5199 34.7201C12.3569 35.0136 12.2533 35.3711 12.2215 35.7502C12.1897 36.1293 12.2309 36.5142 12.3403 36.8592C12.4497 37.2043 12.6227 37.4951 12.8389 37.6973C13.055 37.8995 13.3052 38.0045 13.5599 38.0001Z" fill="currentColor"/>
</svg>
