<svg width="49" height="73" fill="none" xmlns="http://www.w3.org/2000/svg"><path fill-rule="evenodd" clip-rule="evenodd" d="M44.287 38.95A24.39 24.39 0 0049 24.5C49 10.969 38.031 0 24.5 0S0 10.969 0 24.5c0 5.404 1.75 10.4 4.713 14.45.038.21.111.418.224.62l17.815 32.015c.763 1.37 2.733 1.37 3.496 0L44.063 39.57a1.99 1.99 0 00.224-.62zm-8.15-14.45c0 6.427-5.21 11.637-11.637 11.637-6.427 0-11.637-5.21-11.637-11.637 0-6.427 5.21-11.638 11.637-11.638 6.427 0 11.638 5.21 11.638 11.638z" fill="#8975C3"/></svg>