<svg width="51" height="14" fill="none" xmlns="http://www.w3.org/2000/svg"><path d="M12.474 13H9.196V3.452H6.182c-.19 2.347-.447 4.239-.77 5.676-.308 1.423-.74 2.464-1.298 3.124-.557.645-1.305.968-2.244.968-.763 0-1.386-.117-1.87-.352V10.25c.337.147.69.22 1.056.22.264 0 .506-.132.726-.396.22-.264.425-.74.616-1.43.205-.69.389-1.65.55-2.882.161-1.247.308-2.838.44-4.774h9.086V13zm14.334-6.028c0 1.995-.528 3.535-1.584 4.62-1.042 1.085-2.464 1.628-4.268 1.628-1.115 0-2.112-.242-2.992-.726-.866-.484-1.548-1.188-2.046-2.112-.499-.939-.748-2.075-.748-3.41 0-1.995.52-3.527 1.562-4.598 1.041-1.07 2.471-1.606 4.29-1.606 1.129 0 2.126.242 2.992.726.865.484 1.547 1.188 2.046 2.112.498.91.748 2.031.748 3.366zm-8.294 0c0 1.188.19 2.09.572 2.706.396.601 1.034.902 1.914.902.865 0 1.488-.3 1.87-.902.396-.616.594-1.518.594-2.706s-.198-2.075-.594-2.662c-.382-.601-1.012-.902-1.892-.902-.866 0-1.496.3-1.892.902-.382.587-.572 1.474-.572 2.662zM37.81.988v2.464h-5.016V13h-3.278V.988h8.294zm12.91 5.984c0 1.995-.528 3.535-1.584 4.62-1.042 1.085-2.464 1.628-4.268 1.628-1.115 0-2.112-.242-2.992-.726-.865-.484-1.547-1.188-2.046-2.112-.499-.939-.748-2.075-.748-3.41 0-1.995.52-3.527 1.562-4.598 1.041-1.07 2.471-1.606 4.29-1.606 1.13 0 2.127.242 2.992.726.865.484 1.547 1.188 2.046 2.112.498.91.748 2.031.748 3.366zm-8.294 0c0 1.188.19 2.09.572 2.706.396.601 1.034.902 1.914.902.865 0 1.489-.3 1.87-.902.396-.616.594-1.518.594-2.706s-.198-2.075-.594-2.662c-.381-.601-1.012-.902-1.892-.902-.865 0-1.496.3-1.892.902-.381.587-.572 1.474-.572 2.662z" fill="#EFE9FF"/></svg>