<svg width="111" height="105" viewBox="0 0 111 105" fill="none" xmlns="http://www.w3.org/2000/svg">
<path d="M11.1 105H16.65V33.1579H11.1C8.1561 33.1579 5.33277 34.3224 3.25111 36.3951C1.16946 38.4679 0 41.2792 0 44.2105V93.9474C0 96.8787 1.16946 99.69 3.25111 101.763C5.33277 103.836 8.1561 105 11.1 105ZM99.9 33.1579H61.05L67.2771 14.5453C67.8327 12.8841 67.9841 11.1153 67.7187 9.38454C67.4534 7.65375 66.7788 6.0105 65.7507 4.59013C64.7226 3.16976 63.3703 2.01292 61.8053 1.21488C60.2402 0.416847 58.5071 0.000453781 56.7488 0H55.5L27.75 30.0521V105H88.8L110.512 57.4958L111 55.2632V44.2105C111 41.2792 109.831 38.4679 107.749 36.3951C105.667 34.3224 102.844 33.1579 99.9 33.1579Z" fill="#12A505"/>
</svg>
