<svg width="80" height="80" viewBox="0 0 80 80" fill="none" xmlns="http://www.w3.org/2000/svg">
<path d="M45.0997 13.1474V9.64143H48.3666C49.0041 9.64143 49.5619 9.08366 49.5619 8.44621V2.70916C49.5619 2.07171 49.0041 1.51394 48.3666 1.51394H34.4224C33.785 1.51394 33.2272 2.07171 33.2272 2.70916V8.44621C33.2272 9.08366 33.785 9.64143 34.4224 9.64143H37.6894V13.1474C29.9603 14.0239 23.1077 17.6096 17.9284 22.8685L16.5738 21.5139L18.8049 19.2829C19.283 18.8048 19.283 18.0876 18.8049 17.6096L14.1834 12.988C13.7053 12.51 12.9882 12.51 12.5101 12.988L6.21526 19.1235C5.73717 19.6016 5.73717 20.3187 6.21526 20.7968L10.8368 25.4183C11.0758 25.6574 11.3945 25.7371 11.7133 25.7371C12.032 25.7371 12.3507 25.6574 12.5898 25.4183L14.9005 23.1076L16.4145 24.6215C11.6336 30.2789 8.76506 37.6096 8.76506 45.5777C8.76506 63.5857 23.4264 78.247 41.4344 78.247C59.4423 78.247 74.1037 63.5857 74.1037 45.5777C74.024 28.8446 61.3547 14.9801 45.0997 13.1474ZM11.7133 22.9482L8.76506 19.9203L13.2272 15.4582L16.1754 18.4064L14.4224 20.1594C14.1834 20.3984 13.8647 20.7171 13.5459 21.0359L11.7133 22.9482ZM38.8846 7.251H35.6176V3.90438H47.1714V7.251H43.9045C43.267 7.251 42.7093 7.80876 42.7093 8.44621V12.988C42.3109 12.988 41.8328 12.988 41.4344 12.988C41.036 12.988 40.5579 12.988 40.1595 12.988V8.44621C40.0798 7.72908 39.522 7.251 38.8846 7.251ZM41.3547 75.8566C24.7013 75.8566 11.0758 62.3108 11.0758 45.5777C11.0758 28.8446 24.6216 15.2988 41.3547 15.2988C41.9921 15.2988 42.6296 15.2988 43.267 15.3785C43.5858 15.3785 43.9045 15.4582 44.2232 15.4582C59.6017 16.8924 71.6336 29.8805 71.6336 45.5777C71.6336 62.3108 58.0878 75.8566 41.3547 75.8566Z" fill="#E5DFF3"/>
<path d="M58.5659 25.9761C58.4862 25.8964 58.4066 25.8167 58.3269 25.7371C53.785 21.8327 47.8886 19.5219 41.4344 19.5219C27.0121 19.5219 15.3787 31.2351 15.3787 45.5777C15.3787 59.9203 27.0121 71.7131 41.3548 71.7131C55.6974 71.7131 67.4105 60 67.4105 45.6574C67.4902 37.7689 63.9842 30.757 58.5659 25.9761ZM41.3548 69.3227C28.287 69.3227 17.6894 58.7251 17.6894 45.6574C17.6894 32.5896 28.287 21.992 41.3548 21.992C46.8528 21.992 51.8727 23.9044 55.8568 27.012L42.9484 41.8327C42.4703 41.6733 41.9125 41.5139 41.4344 41.5139C39.2034 41.5139 37.3707 43.3466 37.3707 45.5777C37.3707 47.8088 39.2034 49.6414 41.4344 49.6414C43.6655 49.6414 45.4185 47.8088 45.4185 45.5777C45.4185 44.7809 45.1795 43.9841 44.7811 43.3466L57.7691 28.4462C62.3109 32.749 65.0998 38.8048 65.0998 45.5777C65.0998 58.6454 54.4225 69.3227 41.3548 69.3227ZM43.0281 45.5777C43.0281 46.5339 42.3109 47.251 41.3548 47.251C40.3986 47.251 39.6815 46.5339 39.6815 45.5777C39.6815 44.7012 40.3986 43.9044 41.3548 43.9044C42.3109 43.9044 43.0281 44.7012 43.0281 45.5777Z" fill="#E5DFF3"/>
</svg>
