<?xml version="1.0" encoding="utf-8"?><svg viewBox="0 0 80 80" xmlns="http://www.w3.org/2000/svg" xmlns:xlink="http://www.w3.org/1999/xlink"><style>:root>svg{display:none}:root>svg:target{display:block}</style><svg fill="none" viewBox="0 0 80 80" id="icon-advantages-01" xmlns="http://www.w3.org/2000/svg"><path d="M45.1 13.147V9.641h3.267c.637 0 1.195-.557 1.195-1.195V2.71c0-.637-.558-1.195-1.195-1.195H34.422c-.637 0-1.195.558-1.195 1.195v5.737c0 .638.558 1.195 1.195 1.195h3.267v3.506c-7.729.877-14.581 4.463-19.76 9.722l-1.355-1.355 2.23-2.231a1.155 1.155 0 000-1.673l-4.62-4.622a1.156 1.156 0 00-1.674 0l-6.295 6.136a1.155 1.155 0 000 1.673l4.622 4.621c.239.24.558.32.876.32.319 0 .638-.08.877-.32l2.31-2.31 1.514 1.514a32.38 32.38 0 00-7.649 20.956c0 18.008 14.661 32.669 32.67 32.669 18.007 0 32.669-14.661 32.669-32.67-.08-16.732-12.75-30.597-29.004-32.43zm-33.387 9.801L8.765 19.92l4.462-4.462 2.948 2.948-1.753 1.753-.876.877-1.833 1.912zM38.885 7.251h-3.267V3.904H47.17v3.347h-3.267c-.637 0-1.195.558-1.195 1.195v4.542H40.16V8.446c-.08-.717-.638-1.195-1.275-1.195zm2.47 68.606c-16.654 0-30.28-13.546-30.28-30.28 0-16.732 13.547-30.278 30.28-30.278.637 0 1.275 0 1.912.08.319 0 .637.08.956.08 15.379 1.433 27.41 14.422 27.41 30.119 0 16.733-13.545 30.279-30.278 30.279z" fill="#E5DFF3"/><path d="M58.566 25.976l-.24-.239c-4.541-3.904-10.437-6.215-16.892-6.215-14.422 0-26.055 11.713-26.055 26.056 0 14.342 11.633 26.135 25.976 26.135C55.697 71.713 67.41 60 67.41 45.657c.08-7.888-3.427-14.9-8.845-19.68zM41.355 69.323c-13.068 0-23.666-10.598-23.666-23.666 0-13.067 10.598-23.665 23.666-23.665 5.498 0 10.518 1.912 14.502 5.02l-12.909 14.82c-.478-.159-1.035-.318-1.514-.318a4.08 4.08 0 00-4.063 4.064 4.08 4.08 0 004.063 4.063c2.232 0 3.985-1.832 3.985-4.063 0-.797-.24-1.594-.638-2.231l12.988-14.9c4.542 4.302 7.33 10.358 7.33 17.13 0 13.068-10.677 23.746-23.744 23.746zm1.673-23.745c0 .956-.717 1.673-1.673 1.673-.956 0-1.673-.717-1.673-1.673 0-.877.717-1.674 1.673-1.674.956 0 1.673.797 1.673 1.674z" fill="#E5DFF3"/></svg><svg fill="none" viewBox="0 0 80 80" id="icon-advantages-02" xmlns="http://www.w3.org/2000/svg"><path d="M16.255 15.379l9.243 4.063a16.07 16.07 0 00-2.789 9.084c0 8.924 7.251 16.255 16.255 16.255A16.221 16.221 0 0055.22 28.526c0-3.187-.956-6.375-2.709-9.004l8.127-3.825v15.458l-2.47 5.26c-.159.398-.159.796.08 1.115.239.319.638.558 1.036.558h4.701c.398 0 .797-.16.956-.558.24-.319.24-.717.08-1.116l-2.151-5.259V14.661c0-.637-.08-1.115-1.196-1.593-.239-.08-22.151-9.801-22.151-9.801a1.016 1.016 0 00-.956 0l-22.311 9.88c-.398.16-.717.638-.717 1.116 0 .478.239.876.717 1.116zm36.494 13.147c0 7.65-6.215 13.864-13.864 13.864-7.65 0-13.865-6.215-13.865-13.864 0-2.948.956-5.737 2.63-8.128l10.836 4.861c.16.08.319.08.478.08.16 0 .319 0 .478-.08l10.678-4.78a13.506 13.506 0 012.629 8.047zm8.366 7.171l.558-1.195.478 1.195h-1.036zM39.044 5.657l19.362 8.606-19.362 8.606-19.363-8.606 19.363-8.606zM39.362 47.65c-15.537 0-28.207 12.669-28.207 28.207 0 .637.558 1.195 1.196 1.195h54.023c.638 0 1.196-.558 1.196-1.195 0-15.538-12.67-28.208-28.208-28.208zM13.625 74.66c.638-13.705 11.953-24.621 25.817-24.621 13.865 0 25.1 10.996 25.737 24.621H13.625z" fill="#E5DFF3"/></svg><svg fill="none" viewBox="0 0 80 80" id="icon-advantages-03" xmlns="http://www.w3.org/2000/svg"><path d="M63.028 8.048h-12.67V2.629c0-.637-.557-1.195-1.195-1.195H30.28c-.638 0-1.195.558-1.195 1.195v5.419H15.697a5 5 0 00-5.02 5.02v60.08a4.999 4.999 0 005.02 5.02h47.41a4.999 4.999 0 005.02-5.02v-60.08c-.08-2.79-2.31-5.02-5.1-5.02zm-32.75 15.458h18.885c.638 0 1.196-.558 1.196-1.195v-5.18h8.366v51.554H20V17.211h9.084v5.1c0 .717.557 1.195 1.195 1.195zm17.69-19.681v17.291H31.474V3.825h16.494zm17.69 69.243c0 1.434-1.196 2.63-2.63 2.63h-47.33c-1.435 0-2.63-1.196-2.63-2.63v-60c0-1.434 1.195-2.63 2.63-2.63h13.386v4.383h-10.28c-.637 0-1.194.558-1.194 1.195V69.96c0 .638.557 1.195 1.195 1.195H59.92c.638 0 1.195-.557 1.195-1.195V16.016c0-.637-.557-1.195-1.195-1.195h-9.562v-4.383h12.67c1.434 0 2.63 1.195 2.63 2.63v60z" fill="#E5DFF3"/><path d="M22.948 36.972c0 .638.558 1.195 1.195 1.195h30.678c.637 0 1.195-.557 1.195-1.195 0-.637-.558-1.195-1.195-1.195H24.144c-.638 0-1.196.558-1.196 1.195zM54.82 44.143H24.144c-.637 0-1.195.558-1.195 1.196 0 .637.558 1.195 1.195 1.195h30.678c.637 0 1.195-.558 1.195-1.195 0-.638-.558-1.196-1.195-1.196zM54.82 52.908H24.144c-.637 0-1.195.558-1.195 1.196 0 .637.558 1.195 1.195 1.195h30.678c.637 0 1.195-.558 1.195-1.195 0-.638-.558-1.196-1.195-1.196z" fill="#E5DFF3"/></svg><svg fill="none" viewBox="0 0 29 10" id="icon-arrow-down" xmlns="http://www.w3.org/2000/svg"><path d="M0 1.56a.98.98 0 00.193.576c.128.18.315.339.547.464l12 6.44c.358.196.807.303 1.27.303.463 0 .912-.107 1.27-.303l12-6.667c.408-.226.665-.551.714-.904.049-.352-.115-.703-.454-.976-.34-.272-.827-.443-1.356-.476-.53-.032-1.056.077-1.464.303L14 6.28 3.28.52A2.585 2.585 0 002.25.222C1.87.19 1.486.23 1.14.34A1.95 1.95 0 00.304.84C.1 1.055-.005 1.305 0 1.56z" fill="#EFE9FF"/></svg><svg fill="none" viewBox="0 0 32 48" id="icon-arrow-left" xmlns="http://www.w3.org/2000/svg"><path d="M18.44 38a.981.981 0 01-.576-.193 1.593 1.593 0 01-.464-.547l-6.44-12a2.677 2.677 0 01-.303-1.27c0-.463.107-.912.303-1.27l6.667-12c.226-.408.551-.665.904-.714.352-.049.703.115.976.454.272.34.443.827.476 1.356.032.53-.077 1.056-.303 1.464L13.72 24l5.76 10.72c.163.294.267.651.299 1.03.031.38-.01.764-.12 1.11-.109.344-.282.635-.498.837-.216.203-.466.307-.72.303z" fill="currentColor"/></svg><svg fill="none" viewBox="0 0 32 48" id="icon-arrow-right" xmlns="http://www.w3.org/2000/svg"><path d="M13.56 38c.2.001.396-.065.576-.193.18-.128.339-.315.464-.547l6.44-12c.196-.358.303-.807.303-1.27 0-.463-.107-.912-.303-1.27l-6.667-12c-.226-.408-.551-.665-.904-.714-.352-.049-.703.115-.976.454-.272.34-.443.827-.476 1.356-.032.53.077 1.056.303 1.464L18.28 24l-5.76 10.72a2.584 2.584 0 00-.298 1.03c-.032.38.009.764.118 1.11.11.344.283.635.499.837.216.203.466.307.72.303z" fill="currentColor"/></svg><svg fill="none" viewBox="0 0 44 44" id="icon-close" xmlns="http://www.w3.org/2000/svg"><path d="M22 0C9.85 0 0 9.85 0 22s9.85 22 22 22 22-9.85 22-22S34.15 0 22 0zm8.122 30.358l-3.24-.015L22 24.524l-4.876 5.814-3.246.015a.39.39 0 01-.393-.393c0-.093.034-.181.093-.255l6.389-7.612-6.389-7.606a.394.394 0 01.3-.648l3.246.014L22 19.673l4.876-5.815 3.241-.015a.39.39 0 01.393.393.408.408 0 01-.093.255l-6.38 7.607 6.385 7.612a.394.394 0 01-.3.648z" fill="currentColor"/></svg><svg fill="none" viewBox="0 0 22 24" id="icon-facebook" xmlns="http://www.w3.org/2000/svg"><g clip-path="url(#hclip0)"><path d="M18.767 1.5H2.252A2.253 2.253 0 000 3.75v16.5a2.25 2.25 0 002.252 2.25h6.44v-7.14H5.736V12h2.956V9.439c0-2.914 1.736-4.523 4.395-4.523 1.273 0 2.604.227 2.604.227v2.86h-1.467c-1.445 0-1.896.896-1.896 1.815V12h3.227l-.516 3.36h-2.711v7.14h6.44a2.254 2.254 0 002.252-2.25V3.75a2.25 2.25 0 00-2.253-2.25z" fill="currentColor"/></g><defs><clipPath id="hclip0"><path fill="#fff" d="M0 0h21.02v24H0z"/></clipPath></defs></svg><svg fill="none" viewBox="0 0 25 24" id="icon-instagram" xmlns="http://www.w3.org/2000/svg"><g clip-path="url(#iclip0)"><path d="M16.02 12v-.001a4 4 0 10-1.172 2.829 3.843 3.843 0 001.172-2.768l-.001-.063V12zm2.16 0a6.134 6.134 0 11-1.797-4.359 5.922 5.922 0 011.798 4.256l-.001.109V12zm1.687-6.406v.002a1.44 1.44 0 11-.422-1.018c.256.251.415.601.415.988v.029-.001h.007zm-7.84-3.44l-1.195-.008a82.735 82.735 0 00-1.65 0c-.375.005-.877.021-1.507.047-.585.02-1.14.078-1.683.17l.073-.01c-.425.07-.802.17-1.163.303l.043-.014a4.117 4.117 0 00-2.272 2.254l-.01.027a5.976 5.976 0 00-.284 1.083l-.005.037a11.76 11.76 0 00-.16 1.589v.021c-.026.63-.042 1.133-.047 1.508-.006.375-.006.924 0 1.649l.008 1.195-.008 1.195a82.72 82.72 0 000 1.649c.005.375.02.877.047 1.508.02.585.078 1.14.17 1.683l-.01-.073c.07.425.17.802.303 1.163l-.014-.043a4.117 4.117 0 002.254 2.272l.027.01c.318.119.695.219 1.083.284l.037.005c.469.082 1.024.14 1.588.159l.02.001c.631.026 1.134.042 1.509.047.374.005.924.005 1.649 0l1.188-.024 1.195.008a83.36 83.36 0 001.649 0c.375-.005.878-.021 1.508-.047.585-.02 1.14-.078 1.683-.17l-.073.01c.425-.07.802-.17 1.163-.303l-.043.014a4.117 4.117 0 002.272-2.254l.01-.027c.119-.318.219-.695.284-1.083l.005-.037c.082-.469.14-1.024.159-1.588v-.021c.027-.63.042-1.133.048-1.508.005-.375.005-.924 0-1.649-.006-.725-.008-1.123-.008-1.195 0-.072.002-.47.008-1.195.005-.725.005-1.274 0-1.649a58.705 58.705 0 00-.047-1.508c-.02-.585-.078-1.14-.17-1.683l.01.073a6.252 6.252 0 00-.303-1.163l.014.043a4.117 4.117 0 00-2.254-2.272l-.027-.01a5.974 5.974 0 00-1.083-.284l-.037-.005a11.76 11.76 0 00-1.588-.159l-.021-.001a58.831 58.831 0 00-1.508-.047 82.72 82.72 0 00-1.65 0l-1.187.023zM24.02 12c0 2.385-.027 4.036-.08 4.953a6.64 6.64 0 01-6.985 6.968l.016.001c-.917.053-2.568.08-4.953.08-2.386 0-4.037-.027-4.953-.08a6.64 6.64 0 01-6.968-6.985l-.001.016C.042 16.036.016 14.385.016 12c0-2.385.026-4.036.08-4.953A6.64 6.64 0 017.08.079L7.065.078c.916-.053 2.567-.08 4.953-.08 2.385 0 4.036.027 4.953.08a6.64 6.64 0 016.968 6.985v-.016c.054.916.08 2.567.08 4.953z" fill="currentColor"/></g><defs><clipPath id="iclip0"><path fill="#fff" transform="translate(.02)" d="M0 0h24v24H0z"/></clipPath></defs></svg><svg fill="none" viewBox="0 0 24 24" id="icon-telegram" xmlns="http://www.w3.org/2000/svg"><g clip-path="url(#jclip0)"><path d="M22.399 2.137L1.122 10.604c-1.452.602-1.444 1.438-.267 1.811l5.463 1.759 12.639-8.23c.598-.375 1.144-.174.695.238l-10.24 9.537h-.003l.003.002-.377 5.81c.552 0 .795-.26 1.105-.57l2.653-2.662 5.52 4.207c1.017.579 1.748.281 2.001-.972l3.623-17.621c.371-1.535-.568-2.23-1.538-1.776z" fill="currentColor"/></g><defs><clipPath id="jclip0"><path fill="#fff" d="M0 0h24v24H0z"/></clipPath></defs></svg><svg fill="none" viewBox="0 0 24 24" id="icon-vk" xmlns="http://www.w3.org/2000/svg"><g clip-path="url(#kclip0)"><path d="M23.489 5.077c.168-.621 0-1.077-.794-1.077h-2.631c-.67 0-.976.394-1.144.827 0 0-1.337 3.632-3.233 5.988-.612.685-.891.901-1.225.901-.166 0-.409-.216-.409-.837V5.077c0-.746-.193-1.077-.75-1.077H9.167a.667.667 0 00-.67.673c0 .706.948.869 1.046 2.856v4.313c0 .944-.153 1.117-.489 1.117-.891 0-3.06-3.646-4.347-7.82-.251-.81-.504-1.138-1.176-1.138H.902c-.752 0-.902.394-.902.827 0 .778.891 4.625 4.152 9.714 2.174 3.474 5.234 5.358 8.022 5.358 1.672 0 1.878-.418 1.878-1.14v-2.626c0-.836.16-1.005.689-1.005.388 0 1.058.22 2.619 1.893 1.782 1.986 2.077 2.877 3.08 2.877h2.629c.75 0 1.126-.419.91-1.244-.236-.822-1.088-2.017-2.218-3.432-.614-.807-1.532-1.675-1.811-2.11-.39-.56-.277-.806 0-1.303 0 .001 3.205-5.025 3.539-6.733z" fill="currentColor"/></g><defs><clipPath id="kclip0"><path fill="#fff" d="M0 0h24v24H0z"/></clipPath></defs></svg><svg fill="none" viewBox="0 0 32 32" id="icon-whatsapp" xmlns="http://www.w3.org/2000/svg"><path d="M23.328 19.177c-.401-.203-2.354-1.156-2.719-1.292-.365-.13-.63-.198-.896.203-.26.391-1.026 1.286-1.26 1.547-.234.261-.464.281-.859.104-.401-.203-1.682-.62-3.203-1.984-1.188-1.057-1.979-2.359-2.214-2.76-.234-.396-.026-.62.172-.818.182-.182.401-.458.604-.698.193-.24.255-.401.396-.661.13-.281.063-.5-.036-.698-.099-.198-.896-2.161-1.229-2.943-.318-.776-.651-.677-.896-.677-.229-.021-.495-.021-.76-.021s-.698.099-1.063.479c-.365.401-1.396 1.359-1.396 3.297 0 1.943 1.427 3.823 1.625 4.104.203.26 2.807 4.26 6.802 5.979.953.401 1.693.641 2.271.839.953.302 1.823.26 2.51.161.76-.125 2.354-.964 2.688-1.901.339-.943.339-1.724.24-1.901-.099-.182-.359-.281-.76-.458l-.017.099zM16.083 29h-.021c-2.365 0-4.703-.641-6.745-1.839l-.479-.286-5 1.302 1.344-4.865-.323-.5a13.166 13.166 0 01-2.021-7.01c0-7.26 5.943-13.182 13.255-13.182 3.542 0 6.865 1.38 9.365 3.88a13.058 13.058 0 013.88 9.323C29.328 23.078 23.39 29 16.088 29h-.005zM27.359 4.599C24.317 1.661 20.317 0 16.062 0 7.286 0 .14 7.115.135 15.859c0 2.792.729 5.516 2.125 7.927L0 32l8.448-2.203a16.13 16.13 0 007.615 1.932h.005c8.781 0 15.927-7.115 15.932-15.865 0-4.234-1.651-8.219-4.661-11.214l.02-.051z" fill="currentColor"/></svg><svg fill="none" viewBox="0 0 24 24" id="icon-youtube" xmlns="http://www.w3.org/2000/svg"><g clip-path="url(#mclip0)"><path d="M23.5 6.507a2.786 2.786 0 00-.766-1.27 3.05 3.05 0 00-1.338-.742C19.518 4 11.994 4 11.994 4a76.625 76.625 0 00-9.39.47c-.502.14-.962.4-1.338.76-.37.356-.638.795-.778 1.276A29.09 29.09 0 000 12c-.012 1.841.15 3.68.488 5.494.137.479.404.916.775 1.269.37.353.833.608 1.34.743 1.904.494 9.39.494 9.39.494 3.141.036 6.281-.121 9.403-.47a3.05 3.05 0 001.338-.742 2.78 2.78 0 00.765-1.27c.345-1.811.513-3.651.5-5.495a26.58 26.58 0 00-.5-5.517v.001zM9.602 15.424V8.577l6.26 3.424-6.26 3.423z" fill="currentColor"/></g><defs><clipPath id="mclip0"><path fill="#fff" d="M0 0h24v24H0z"/></clipPath></defs></svg></svg>